<svg xmlns="http://www.w3.org/2000/svg" viewBox="0 0 228.68 58.72"><defs><style>.cls-1{fill:#872fa8;}</style></defs><title>logo-naturea</title><g id="Capa_2" data-name="Capa 2"><g id="Layer_1" data-name="Layer 1"><path class="cls-1" d="M50.38,2.46c7.27-3.9,16.55-2.93,23.5,1.27C78.58,6.51,82,11,84.58,15.67,91.39,4.29,107.44-.12,118.84,6.93c1.08.75.6,2.32.27,3.36a23.14,23.14,0,0,1-18.42,14.34c-5,1.06-10.08-.17-15.1-.59-.63,6.7-2,13.74.78,20.17,1.53,3.39,3.78,7.23,7.62,8.23,4.55,1,8.36-3.47,8.54-7.69.38-6.12-.63-12.69,2.15-18.39a3.55,3.55,0,0,1,3.51,1.55c-.86,6.65-2,13.73.66,20.13,1.15,2.3,3.1,4.79,5.81,5.13,4.09-.78,6.2-5.09,6.87-8.83,1-4.21.57-8.57-.12-12.79-.06-1.57-.74-3.41.42-4.74l3.17-.56c1.89,6.41,1,13.16,2.32,19.64.59,3.13,3.08,6.43,6.53,6.33,4.55-1.06,7.9-4.66,10.82-8.09-4-2-8.51-5.36-8.49-10.33-.27-5.36,6-9.53,10.85-7.2,3.47,2.6,3.7,7.31,4.58,11.21,1.78-1.9,3.83-3.7,4.86-6.16,1.18-2.76,2.09-5.75,4.37-7.86.82,1.17,3,2.25,2,4-1.33,5.54-5.53,10.19-5.62,16.06-.31,3.46,1.58,7.24,5,8.4,2.8.64,5.69.08,8.51-.17-.43-3.49-2.39-6.65-2.32-10.21a24.76,24.76,0,0,1,2.86-11.65,12.16,12.16,0,0,1,11.28-6.42c5.53.54,9,6.86,7.51,12-1.27,6.92-6.09,12.29-11.34,16.61,2.49,0,5.23.27,7.38-1.29,6.33-3.93,10.78-10.17,14.73-16.35,4.23-5.42,10.8-9.85,17.93-9.48,1.73.08,1.68,2.37,1.29,3.61-3.29,1.15-7,1.28-9.95,3.23-5.29,3.26-8.29,10.07-6.49,16.11.74,2.17,2.66,4.52,5.21,4,2.71-.7,4.57-3,6.48-4.85-1.71-3.3-2.88-7.22-1.6-10.87,1.28-2.36,3.75-5,6.73-4.19a5.54,5.54,0,0,1,3.24,4.78c.52,3.81-1.62,7.18-2.71,10.68,1.64,2.62,4.74,3.42,7.59,3.92.06,1.32.11,2.65.14,4-4.2.46-7.74-1.79-10.71-4.48-3.18,3.24-7.17,6.86-12.12,5.9-4.81-.71-7.59-5.16-8.94-9.43-4.38,4-8.85,8.7-15,9.5-3.24.5-6.1-3-9.26-1.33-5.34,2.3-12.25,2-16.38-2.47-3-2.79-3.38-7.1-4.11-10.9-3.2,3.08-4.83,7.51-8.54,10.09s-8.19,4.66-12.73,3.72c-2.7-.81-4.6-3-6.63-4.8-2,3.88-5.88,6.88-10.44,6.17-4,.25-6.76-3.08-9-6C102,54.84,98,57.77,93.53,56.83c-4.25-.73-7.18-4.14-9.69-7.35-2,3.8-5.14,8-9.89,8.09-4.46.51-7.83-2.87-11-5.48-3,2.63-6.11,5.51-10.17,6.17C47.3,59.09,41.9,54.38,41.24,49c-.71-6.37,2.36-12.63,6.51-17.29s10.35-7.07,16.53-7.59c.23,1.44,1.89,3.07.12,4.15-3.24,1.14-6.85,1.39-9.77,3.36-3.32,2.25-6.25,5.48-7.35,9.4-.48,3.88-.57,8.84,3.09,11.29,4,1.38,7.52-1.38,10.17-4-2-3.5-3.4-7.79-1.95-11.77,1-2.34,3.44-4.92,6.28-4.08a5.71,5.71,0,0,1,3.73,5.41c.52,3.87-1.16,7.45-2.36,11,2,2.12,4.49,4.59,7.64,4.39,4.64-1,6.53-6.16,6.55-10.42.06-6.54,0-13.09,1.07-19.57-4.86.15-9.9.72-14.62-.78C59.5,20.28,52.78,15,50.09,7.65,49.55,6.05,48.32,3.51,50.38,2.46Zm3.58,3A20.11,20.11,0,0,0,64.21,16.52c5,2.78,10.92,2.18,16.36,1.43C76.5,7.87,64.39,1.68,54,5.46Zm34,13.46c5.4,1.55,11.36,2.26,16.66,0,4.47-1.61,7.8-5.21,10.21-9.19a26.23,26.23,0,0,0-9-1.56C98.43,8,91.52,12.58,87.94,18.92Zm91.33,11.45c-3.43,1.29-4.77,5.2-5.31,8.52-.7,3.47.31,7,1.5,10.19,4.21-3.57,8.19-7.83,9.79-13.24C186.11,32.59,182.48,29.09,179.27,30.37Zm-38,2.34a8.9,8.9,0,0,0,4.26,6.22,17.69,17.69,0,0,0-1.55-7Z"/><path class="cls-1" d="M2.79,7.94C3.45,6,4,2.61,6.84,3.28a13.65,13.65,0,0,1,3.33,5.4c3.88,12.46,4.23,26.13.07,38.57,2.83,3.32,6.69,7,11.44,6.12,3.83-1,6.36-4.59,7.84-8.07a46,46,0,0,0-.23-32c-1.18-3-2.88-5.82-3.23-9.07,1.17-.08,2.33-.11,3.49-.09,3.21,4,4.47,9.21,6.05,14,2.67,10.08,4.54,21.39-.15,31.17-2.78,6.33-9.91,10-16.69,9.3-4.16-.18-7.29-3.25-10.15-5.91-1.4,2-1.75,5.85-4.86,5.79-3.38-2,.06-5.58.82-8.18,1.54-2.31-.63-4.56-1.42-6.7C-2,32.39.17,19.54,2.79,7.94Zm3.73,31.6,1.61-.24c.36-8.35,1.35-17-1.31-25.09C5,22.49,4.5,31.24,6.52,39.54Z"/><path class="cls-1" d="M170.64,15.45c6.19-2.46,13.21-2.82,19.76-1.93,3.11.48,3,6.29-.44,5.78-6.93-.58-13.85.15-20.78.21C169.44,18.08,168.72,15.93,170.64,15.45Z"/></g></g></svg>